PathFileType	4	(X/Y/Z)	Kaydara																																																																																																																									
DataRate	CameraRate	NumFrames	NumMarkers	Units	OrigDataRate	OrigDataStartFrame	OrigNumFrames																																																																																																																					
30	30	6	41	mm	30	72	142																																																																																																																					
Frame#	Time	PAIB_LFHD			PAIB_RFHD			PAIB_LBHD			PAIB_RBHD			PAIB_LFTShould			PAIB_RFTShould			PAIB_LRRShould			PAIB_RRRShould			PAIB_T10			PAIB_STRN			PAIB_TRUN			PAIB_LSHO			PAIB_LUPA			PAIB_LELB			PAIB_LFRM			PAIB_LWRA			PAIB_LWRB			PAIB_LFIN			PAIB_RSHO			PAIB_RUPA			PAIB_RELB			PAIB_RFRM			PAIB_RWRA			PAIB_RWRB			PAIB_RFIN			PAIB_LFWT			PAIB_RFWT			PAIB_LBWT			PAIB_RBWT			PAIB_LTHI			PAIB_LKNE			PAIB_LSHN			PAIB_LANK			PAIB_LHEE			PAIB_LTOE			PAIB_RTHI			PAIB_RKNE			PAIB_RSHN			PAIB_RANK			PAIB_RHEE			PAIB_RTOE		
		X1	Y1	Z1	X2	Y2	Z2	X3	Y3	Z3	X4	Y4	Z4	X5	Y5	Z5	X6	Y6	Z6	X7	Y7	Z7	X8	Y8	Z8	X9	Y9	Z9	X10	Y10	Z10	X11	Y11	Z11	X12	Y12	Z12	X13	Y13	Z13	X14	Y14	Z14	X15	Y15	Z15	X16	Y16	Z16	X17	Y17	Z17	X18	Y18	Z18	X19	Y19	Z19	X20	Y20	Z20	X21	Y21	Z21	X22	Y22	Z22	X23	Y23	Z23	X24	Y24	Z24	X25	Y25	Z25	X26	Y26	Z26	X27	Y27	Z27	X28	Y28	Z28	X29	Y29	Z29	X30	Y30	Z30	X31	Y31	Z31	X32	Y32	Z32	X33	Y33	Z33	X34	Y34	Z34	X35	Y35	Z35	X36	Y36	Z36	X37	Y37	Z37	X38	Y38	Z38	X39	Y39	Z39	X40	Y40	Z40	X41	Y41	Z41
																																																																																																																												
72	2.377	275.40657	1594.43924	-1587.48169	90.69908	1590.11551	-1613.97995	301.90506	1578.50632	-1713.76251	98.64946	1583.03299	-1728.32733	250.24746	1335.61096	-1663.54263	131.05412	1336.45844	-1695.61462	290.96699	1441.59622	-1769.97757	142.68208	1445.99075	-1802.36908	242.28294	1324.64355	-1916.98334	194.10561	1262.41798	-1667.30759	195.30556	1159.31992	-1681.76712	394.26823	1369.17099	-1701.89148	513.69892	1179.80835	-1744.20715	557.13226	1113.89641	-1781.62155	533.32596	1005.59067	-1714.53461	415.21255	925.27924	-1650.54169	483.04615	889.21219	-1677.9599	447.2776	869.21196	-1613.83499	22.30362	1370.09094	-1785.38635	-37.62746	1274.12857	-1929.26239	-75.53806	1190.11383	-2001.48788	-104.11084	1048.43407	-2007.13669	-67.65778	927.47406	-1922.03506	-125.40552	924.46838	-1989.08295	-132.82819	881.78711	-1925.19379	323.74287	913.61137	-1779.11499	88.11082	930.78033	-1791.10077	270.33159	977.12234	-2001.86249	129.95697	988.54889	-1999.79568	307.62596	718.89679	-2023.69202	333.15487	456.14311	-1963.82309	296.10266	272.39899	-2022.26852	296.7067	129.77542	-2170.6395	241.339	134.58061	-2219.8938	278.80222	75.17066	-2011.79016	39.59909	674.77768	-1917.9039	8.84092	476.72943	-1758.93082	82.70156	318.584	-1851.34293	72.02638	226.56849	-2050.00061	137.69686	247.86476	-2070.784	60.17681	94.24971	-1911.34857
73	2.41	275.46204	1579.46564	-1549.7937	90.91294	1575.56976	-1576.74713	302.46189	1565.35889	-1676.1911	99.16419	1570.41229	-1691.48773	247.09244	1321.4682	-1629.43298	129.06214	1324.36371	-1665.36102	292.57832	1430.16205	-1732.93793	145.29727	1436.36368	-1768.61359	247.19893	1318.0368	-1884.47235	190.92974	1248.90709	-1637.19193	192.1806	1146.2883	-1654.81842	391.43547	1354.50043	-1662.50412	513.80085	1166.26015	-1692.64374	558.95256	1098.28285	-1723.50479	530.17414	994.17961	-1651.79062	408.14297	918.64319	-1589.56497	477.29031	880.9137	-1611.57837	437.70954	864.57039	-1548.30154	23.75134	1361.85638	-1757.37244	-31.54166	1275.53978	-1908.66028	-67.15052	1196.83228	-1988.15674	-96.08686	1056.45645	-2007.46078	-63.20537	928.11478	-1931.97235	-115.01707	929.07715	-1998.31985	-128.90857	883.99155	-1941.02631	326.93195	904.56627	-1754.51019	92.17378	924.73984	-1768.71048	273.73989	969.11667	-1978.3873	133.95648	980.83763	-1977.52197	308.3054	718.57803	-2006.54572	335.77457	454.06441	-1960.87112	299.24536	271.80874	-2024.13452	299.89822	132.24113	-2174.6843	244.85981	137.88895	-2224.06219	279.50521	74.94259	-2017.18491	39.81327	672.52335	-1874.36646	6.20513	491.97292	-1691.47522	88.50595	327.26265	-1766.67648	87.67728	215.44693	-1957.74536	152.38675	238.85513	-1980.08362	84.51793	102.31858	-1804.32739
74	2.443	273.65898	1562.16675	-1510.06363	88.80146	1557.30362	-1537.0076	300.66534	1550.49072	-1636.64261	97.32171	1554.19235	-1651.85013	242.00098	1306.23566	-1591.77185	125.98946	1310.07599	-1632.89215	292.53973	1416.32294	-1692.06635	146.83007	1424.06296	-1731.79138	251.39242	1309.75861	-1849.06616	186.84933	1233.01292	-1605.04929	188.94455	1131.21521	-1626.02676	386.5947	1338.32855	-1619.29565	508.72108	1151.25031	-1634.50058	559.33666	1083.8205	-1661.51276	524.09302	984.81514	-1582.16187	397.66838	913.91106	-1523.61755	468.26359	875.49637	-1536.57959	423.86772	863.25752	-1476.18301	24.54035	1350.11627	-1726.54984	-26.74025	1276.72073	-1884.91455	-60.85035	1204.81247	-1971.69724	-89.07772	1066.44852	-2004.51431	-59.05847	932.39891	-1938.50143	-108.14608	938.75931	-2006.81534	-124.75986	889.0168	-1954.16855	328.91064	895.17754	-1727.66068	94.95111	915.9288	-1744.88342	277.53084	960.2079	-1952.03735	137.79139	970.32463	-1953.04916	310.71198	718.54683	-1987.56577	341.55487	453.00175	-1958.89175	304.86364	272.7599	-2025.13245	304.24746	136.89022	-2180.41824	249.35043	144.04202	-2229.65607	282.06303	74.79989	-2025.27802	38.9926	668.63045	-1833.97858	5.54188	505.42305	-1627.87766	93.6961	330.61974	-1671.74576	102.43316	184.61853	-1839.92493	168.18384	204.34515	-1862.85202	95.79169	104.99064	-1668.45871
75	2.477	268.80125	1542.47665	-1467.40753	84.35632	1536.28586	-1495.90073	296.91214	1532.75757	-1593.88947	93.67624	1534.86206	-1610.68085	237.06894	1286.72318	-1555.32761	121.96619	1292.02682	-1598.64838	291.06745	1400.0795	-1648.37814	147.22092	1409.78958	-1692.63992	254.97862	1299.28604	-1810.65094	181.44978	1214.29672	-1571.30142	184.70827	1113.47565	-1595.77194	379.41006	1320.29694	-1572.53738	505.59097	1138.93143	-1573.89908	559.64211	1071.11641	-1593.13858	517.1241	978.48053	-1509.1597	386.23711	912.86568	-1455.55756	457.13951	872.9451	-1459.3219	407.58461	866.9471	-1402.09793	24.47595	1337.60193	-1693.77914	-23.35779	1279.76112	-1857.89734	-57.80773	1215.22583	-1950.80658	-85.40206	1079.26315	-1994.30817	-55.46936	940.91141	-1938.11646	-105.1544	952.36259	-2006.5332	-120.80011	898.49113	-1956.60965	330.86956	883.40034	-1698.58398	97.25326	903.58879	-1716.85455	279.23906	950.03181	-1922.34146	139.85085	957.87598	-1924.72519	314.25348	718.10768	-1966.02646	346.2632	452.12753	-1954.04541	310.96655	273.95802	-2027.00562	310.10492	142.7966	-2187.15073	255.39261	152.00817	-2235.76813	286.18166	74.51684	-2034.81964	39.02314	660.54321	-1795.62943	8.32094	513.49998	-1573.02826	94.32461	329.54914	-1575.07904	108.42461	148.29065	-1704.33258	175.65025	161.72405	-1727.37061	93.16825	108.07135	-1518.84018
76	2.51	261.76077	1520.9407	-1421.98578	77.95507	1514.07944	-1452.84317	291.52576	1513.04581	-1548.25348	88.44341	1514.33655	-1567.668	229.69063	1265.5249	-1514.37302	116.10771	1273.21777	-1561.6922	288.00806	1381.94565	-1602.11258	146.46219	1393.80707	-1650.21027	257.26446	1286.13037	-1768.83194	174.47407	1193.81126	-1534.34479	178.67382	1093.83728	-1561.81458	370.36232	1300.90225	-1523.77838	503.42041	1129.60876	-1511.0257	560.63282	1062.72324	-1521.5683	510.26638	975.78041	-1435.08133	374.57005	915.66048	-1387.46979	444.7517	874.47662	-1382.7739	391.81805	874.133	-1329.04099	23.3573	1325.28885	-1658.02612	-21.95489	1283.03497	-1825.73273	-56.56041	1226.19583	-1924.05441	-84.94582	1093.14964	-1976.31195	-56.77378	951.57288	-1927.99347	-106.4182	967.48978	-1996.87042	-121.65533	910.4361	-1948.48282	332.39803	868.29498	-1667.00806	99.91131	889.86946	-1684.26727	279.48696	938.16795	-1888.86856	140.08377	944.92599	-1892.14615	315.49006	716.73988	-1941.05438	350.20664	451.59142	-1948.11737	316.42548	275.44804	-2027.23969	316.31649	150.19999	-2193.06519	261.05265	160.79737	-2240.22141	290.1792	74.45313	-2043.8945	48.15695	651.2059	-1754.41315	17.16336	508.12305	-1527.99469	92.44719	326.30745	-1488.32703	100.21215	121.04532	-1572.32666	168.90667	127.36025	-1596.47736	87.39298	118.82442	-1380.4599
77	2.543	254.16082	1501.866	-1375.07202	70.25051	1494.08386	-1405.46188	283.5375	1494.15543	-1501.39938	80.45329	1494.47891	-1520.46478	220.56377	1245.38704	-1468.55331	108.53971	1254.92546	-1519.72168	282.04731	1364.75006	-1552.40768	142.64883	1377.43134	-1604.17084	257.18727	1271.4328	-1721.51566	165.90849	1174.21829	-1491.78452	171.14231	1074.91722	-1520.76141	359.6537	1284.8587	-1470.93185	497.35603	1123.07693	-1444.6434	558.82401	1059.14505	-1449.89914	501.92123	977.89032	-1361.76239	364.23809	919.25575	-1322.10709	434.53079	879.35379	-1308.42255	376.44981	881.74339	-1260.0972	20.55214	1312.73514	-1616.58264	-22.11921	1284.52011	-1786.04263	-57.56837	1235.24155	-1888.22021	-88.36819	1106.16165	-1949.90829	-64.70867	961.40953	-1906.89545	-112.41049	981.63605	-1976.25671	-130.27573	922.96371	-1930.71533	335.10075	851.42113	-1633.45596	102.42279	877.75017	-1644.81033	278.24406	926.44119	-1851.25824	138.02328	933.06831	-1853.19199	314.20244	712.59499	-1913.3577	353.3728	450.10056	-1937.87292	321.33301	276.80128	-2023.11203	320.88097	158.91592	-2194.85138	265.07542	171.96033	-2241.22269	293.92908	74.35776	-2052.0491	58.49563	641.13235	-1711.72729	32.82852	499.55509	-1483.22449	97.92217	321.4167	-1424.09286	89.46667	107.59625	-1480.8606	157.7983	105.16414	-1509.83551	85.99663	138.57755	-1289.72321
